<?xml version="1.0" encoding="utf-8"?>
<!-- Generator: Adobe Illustrator 20.1.0, SVG Export Plug-In . SVG Version: 6.00 Build 0)  -->
<svg version="1.1" id="Layer_1" xmlns="http://www.w3.org/2000/svg" xmlns:xlink="http://www.w3.org/1999/xlink" x="0px" y="0px"
	 viewBox="0 0 500 500" style="enable-background:new 0 0 500 500;" xml:space="preserve">
<style type="text/css">
	.st0{fill:#E77725;stroke:#000000;stroke-width:5;stroke-miterlimit:10;}
	.st1{fill:none;stroke:#000000;stroke-width:5;stroke-miterlimit:10;}
	.st2{fill:#606060;}
	.st3{fill:#9F9F9F;}
	.st4{fill:#444444;}
</style>
<circle class="st0" cx="236.3" cy="224.1" r="198.1"/>
<path class="st1" d="M236.3,26c0,0-141.2,209.9,0,396.3"/>
<path class="st1" d="M38.2,224.1c0,0,158.2,71,396.3,0"/>
<path class="st1" d="M92.1,88.3c0,0,19.4,84.8,81.5,94.9c0,0,60.8,14.1,126.5-47.4S375,82.6,375,82.6"/>
<path class="st1" d="M79.6,345.3c0,0,37.2-35.4,103.1-33.6c0,0,50.1-6.9,108.9,16.8s101.5,16.8,101.5,16.8"/>
<g>
	<path d="M256.3,399.7c1.3-0.8,2.6-1.7,3.9-2.4c37.2-19.6,74.3-39.1,111.5-58.6c7.7-4.1,16-6.3,24.8-7c0.6,0,1.1-0.2,1.7-0.3
		c2.7,0,5.5,0,8.2,0c0.4,0.1,0.9,0.3,1.3,0.3c12.7,1.3,23.5,6.4,32.6,15.4c12,11.9,24.3,23.6,36.5,35.4c6.5,6.4,10.9,14,12.9,22.9
		c0.4,1.9,0.8,3.8,1.2,5.7c0,3.1,0,6.3,0,9.4c-0.1,0.4-0.3,0.9-0.4,1.3c-1,4.3-1.5,8.7-3.1,12.8c-9,22.7-26.1,36.2-49.5,42.2
		c-2.9,0.7-5.8,1.1-8.7,1.6c-3.8,0-7.6,0-11.3,0c-0.4-0.1-0.7-0.3-1.1-0.4c-13.2-1.5-24.4-6.8-33.4-16.6
		c-6.6-7.1-13.3-14.1-19.9-21.2c-0.3-0.3-0.6-0.6-1-0.9c-0.7,0.4-1.2,0.7-1.8,1c-21,11.7-42,23.3-63,35c-1.8,1-2.9,0.8-4.2-0.6
		c-11.6-12.4-23.3-24.8-34.9-37.2c-0.7-0.8-1.4-1.7-2.1-2.5C256.3,423.2,256.3,411.4,256.3,399.7z M297.8,469.9
		c0.7-0.4,1.3-0.6,1.8-0.9c11.3-6.2,22.5-12.5,33.7-18.7c13.1-7.3,26.2-14.5,39.2-21.7c2.2-1.2,3.6-0.4,3.7,2.1c0,0.7,0,1.4,0.1,2.1
		c0.9,14.6,7.4,26,19.9,33.7c11.7,7.2,24.6,9,37.9,6.3c20.9-4.1,36.7-15.4,46.7-34.3c4.7-9,6.8-18.6,5.1-28.7
		c-2.8-17.3-12.9-28.8-29.4-34.3c-16.1-5.4-31.9-3.2-46.6,4.8c-37,20-73.9,40.4-110.8,60.6c-1.2,0.6-1.5,1.3-1.5,2.6
		c0.1,8.2,0,16.4,0,24.6C297.7,468.6,297.7,469.2,297.8,469.9z M459.1,371.4c-0.3-0.3-0.4-0.5-0.6-0.7c-7.8-7.6-15.6-15.2-23.4-22.7
		c-3.6-3.4-7.7-6.2-12.3-8.1c-16.6-7-33.1-5.7-48.7,2.4c-37,19.1-73.7,38.7-110.6,58.1c-0.5,0.3-0.9,0.6-1.5,0.9
		c11.4,12.3,22.7,24.3,33.9,36.4c0.8-0.4,1.4-0.8,2.1-1.1c30.9-16.9,61.7-33.8,92.6-50.7c7.6-4.1,15.1-8.5,23-12
		c11.1-5,22.8-6.6,34.9-4.7C452,369.7,455.5,370.6,459.1,371.4z M291.9,465.5c0-8.3,0-15.9,0-23.6c0-0.5-0.3-1.2-0.6-1.5
		c-4.1-4.5-8.3-9-12.5-13.4c-0.3-0.3-1.1-0.5-1.4-0.3c-4.8,2.5-9.6,5.1-14.6,7.8C272.4,444.7,281.9,454.9,291.9,465.5z M262.2,429.8
		c4.4-2.4,8.5-4.6,12.9-6.9c-4.3-4.6-8.4-9.1-12.9-13.9C262.2,416.2,262.2,422.8,262.2,429.8z M366.2,437c2.7,2.8,5.2,5.5,7.8,8.3
		c-0.7-3.9-1.4-7.6-2.1-11.5C370,434.9,368.2,435.9,366.2,437z"/>
	<path class="st2" d="M297.8,469.9c0-0.8-0.1-1.3-0.1-1.9c0-8.2,0-16.4,0-24.6c0-1.2,0.3-2,1.5-2.6c36.9-20.2,73.8-40.6,110.8-60.6
		c14.7-8,30.5-10.1,46.6-4.8c16.5,5.5,26.6,17,29.4,34.3c1.6,10.1-0.4,19.7-5.1,28.7c-9.9,19-25.7,30.3-46.7,34.3
		c-13.4,2.6-26.2,0.9-37.9-6.3c-12.5-7.7-19-19.1-19.9-33.7c0-0.7,0-1.4-0.1-2.1c-0.1-2.5-1.5-3.4-3.7-2.1
		c-13.1,7.2-26.2,14.5-39.2,21.7c-11.3,6.2-22.5,12.5-33.7,18.7C299.1,469.3,298.5,469.6,297.8,469.9z"/>
	<path class="st3" d="M459.1,371.4c-3.7-0.8-7.2-1.7-10.7-2.3c-12.1-1.9-23.8-0.3-34.9,4.7c-7.9,3.5-15.4,7.9-23,12
		c-30.9,16.9-61.7,33.8-92.6,50.7c-0.6,0.3-1.3,0.7-2.1,1.1c-11.3-12.1-22.5-24.2-33.9-36.4c0.6-0.4,1-0.7,1.5-0.9
		c36.8-19.4,73.6-39,110.6-58.1c15.6-8,32.1-9.3,48.7-2.4c4.6,1.9,8.7,4.7,12.3,8.1c7.9,7.5,15.6,15.1,23.4,22.7
		C458.7,370.9,458.9,371.1,459.1,371.4z M380,343.4c-0.6,0.2-0.9,0.2-1.2,0.3c-4.6,2.4-9.1,4.7-13.6,7.2c-1.5,0.8-1.5,2.3-0.3,3.6
		c7.5,7.8,15,15.6,22.5,23.3c1,1.1,2.2,1.3,3.5,0.6c4.1-2.2,8.3-4.3,12.4-6.6c2.2-1.2,2.4-2.6,0.7-4.3c-7.4-7.6-14.7-15.3-22.1-22.9
		C381.3,344.1,380.5,343.7,380,343.4z"/>
	<path class="st4" d="M291.9,465.5c-9.9-10.6-19.5-20.8-29.2-31.1c5-2.7,9.8-5.3,14.6-7.8c0.3-0.2,1.1,0,1.4,0.3
		c4.2,4.4,8.4,8.9,12.5,13.4c0.4,0.4,0.6,1,0.6,1.5C291.9,449.6,291.9,457.2,291.9,465.5z"/>
	<path class="st4" d="M262.2,429.8c0-7,0-13.6,0-20.8c4.4,4.8,8.6,9.2,12.9,13.9C270.7,425.2,266.6,427.4,262.2,429.8z"/>
	<path class="st4" d="M366.2,437c2-1.1,3.8-2.1,5.7-3.2c0.7,3.8,1.4,7.5,2.1,11.5C371.4,442.5,368.9,439.8,366.2,437z"/>
	<path d="M380,343.4c0.5,0.4,1.3,0.7,1.9,1.3c7.4,7.6,14.8,15.2,22.1,22.9c1.7,1.8,1.5,3.2-0.7,4.3c-4.1,2.2-8.3,4.4-12.4,6.6
		c-1.3,0.7-2.5,0.5-3.5-0.6c-7.5-7.8-15-15.5-22.5-23.3c-1.2-1.3-1.2-2.8,0.3-3.6c4.5-2.5,9.1-4.8,13.6-7.2
		C379.1,343.6,379.4,343.5,380,343.4z M399.5,369.1c-6.6-6.8-13-13.4-19.4-20c-0.4-0.4-1.3-0.6-1.8-0.4c-2.9,1.4-5.8,3-8.8,4.6
		c6.8,7,13.4,13.9,20.2,20.9C393,372.5,396.2,370.8,399.5,369.1z"/>
	<path class="st4" d="M399.5,369.1c-3.4,1.8-6.5,3.4-9.8,5.1c-6.7-7-13.4-13.9-20.2-20.9c3-1.6,5.9-3.2,8.8-4.6
		c0.4-0.2,1.4,0,1.8,0.4C386.6,355.6,392.9,362.3,399.5,369.1z"/>
</g>
</svg>
